<?xml version="1.0" encoding="UTF-8"?>
<svg width="126px" height="30px" viewBox="0 0 126 30" version="1.1" xmlns="http://www.w3.org/2000/svg" xmlns:xlink="http://www.w3.org/1999/xlink">
    <!-- Generator: Sketch 48 (47235) - http://www.bohemiancoding.com/sketch -->
    <title>Doton Farm logo with words</title>
    <desc>Created with Sketch.</desc>
    <defs></defs>
    <g id="Page-1" stroke="none" stroke-width="1" fill="none" fill-rule="evenodd">
        <g id="Doton-Farm-logo-with-words" fill="#FFFFFF">
            <g id="doton_farm_logo_white_small-copy">
                <path d="M15,30 C6.71572875,30 0,23.2842712 0,15 C0,6.71572875 6.71572875,0 15,0 C23.2842712,0 30,6.71572875 30,15 C30,23.2842712 23.2842712,30 15,30 Z M15.0652174,28.0434783 C22.2329129,28.0434783 28.0434783,22.2329129 28.0434783,15.0652174 C28.0434783,7.89752183 22.2329129,2.08695652 15.0652174,2.08695652 C7.89752183,2.08695652 2.08695652,7.89752183 2.08695652,15.0652174 C2.08695652,22.2329129 7.89752183,28.0434783 15.0652174,28.0434783 Z" id="Combined-Shape" fill-opacity="0.453521286"></path>
                <path d="M19.3043478,17.4782609 L19.3043478,12.1304348 L11.0869565,12.1304348 L11.0869565,17.4782609 L7.69565217,17.4782609 L7.69565217,10.0434783 L10.0434783,5.73913043 L15,3.26086957 L20.2173913,6 L22.4347826,10.173913 L22.4347826,17.4782609 L19.3043478,17.4782609 Z M13.6956522,5.73913043 L13.6956522,8.47826087 L16.4347826,8.47826087 L16.4347826,5.73913043 L13.6956522,5.73913043 Z" id="Combined-Shape"></path>
                <rect id="Rectangle-3" x="13.9565217" y="6" width="2.2173913" height="2.2173913"></rect>
                <polygon id="Triangle" points="15.1304348 15.3913043 18.1304348 17.3478261 12.1304348 17.3478261"></polygon>
                <polygon id="Triangle-Copy-2" points="15.6521739 15.0652174 18.6521739 13.0434783 18.6521739 17.0869565"></polygon>
                <polygon id="Triangle-Copy-3" transform="translate(13.239130, 15.065217) scale(-1, 1) translate(-13.239130, -15.065217) " points="11.7391304 15.0652174 14.7391304 13.0434783 14.7391304 17.0869565"></polygon>
                <polygon id="Triangle-Copy" transform="translate(15.130435, 13.760870) scale(1, -1) translate(-15.130435, -13.760870) " points="15.1304348 12.7826087 18.1304348 14.7391304 12.1304348 14.7391304"></polygon>
                <path d="M15.1304348,17.8695652 L16.9565217,17.8695652 L21.1304348,25.826087 C20,26.5217391 18.9565217,26.9565217 18,27.1304348 C17.0434783,27.3043478 16.0869565,27.3913043 15.1304348,27.3913043 L15.1304348,17.8695652 Z" id="Rectangle-2-Copy-2"></path>
                <path d="M8.86956522,17.8695652 L10.6956522,17.8695652 L14.8695652,25.826087 C13.4782609,26.5217391 12.4347826,26.9565217 11.7391304,27.1304348 C11.0434783,27.3043478 10.0869565,27.3913043 8.86956522,27.3913043 L8.86956522,17.8695652 Z" id="Rectangle-2-Copy-3" transform="translate(11.869565, 22.630435) scale(-1, 1) translate(-11.869565, -22.630435) "></path>
                <path d="M5.73913043,17.8695652 L7.56521739,17.8695652 L12.7826087,23.3478261 C12.6956522,23.6086957 12.3043478,24 11.6086957,24.5217391 C10.9130435,25.0434783 10.3478261,25.4347826 9.91304348,25.6956522 L5.73913043,17.8695652 Z" id="Rectangle-2-Copy-4" transform="translate(9.260870, 21.782609) scale(-1, 1) translate(-9.260870, -21.782609) "></path>
                <path d="M17.3478261,17.8695652 L19.173913,17.8695652 L24.7826087,22.9565217 C24.4347826,23.4782609 23.9130435,24 23.2173913,24.5217391 C22.5217391,25.0434783 21.9565217,25.4347826 21.5217391,25.6956522 L17.3478261,17.8695652 Z" id="Rectangle-2-Copy-5"></path>
                <path d="M19.6956522,17.8695652 L21.7826087,17.8695652 L26.2173913,20.6086957 C26.3043478,20.6956522 26.173913,21 25.826087,21.5217391 C25.4782609,22.0434783 25.2173913,22.3913043 25.0434783,22.5652174 L19.6956522,17.8695652 Z" id="Rectangle-2-Copy-6"></path>
                <path d="M3.91304348,17.8695652 L6.23478261,17.8695652 L10.6695652,20.6086957 C10.7565217,20.6956522 10.626087,21 10.2782609,21.5217391 C9.93043478,22.0434783 9.54782609,22.5652174 9.13043478,23.0869565 L3.91304348,17.8695652 Z" id="Rectangle-2-Copy-7" transform="translate(7.304348, 20.478261) scale(-1, 1) translate(-7.304348, -20.478261) "></path>
                <path d="M3,17.8695652 L5.45217391,17.8695652 L7.82608696,18.7826087 C7.82608696,18.8695652 7.73913043,19.1304348 7.56521739,19.5652174 C7.39130435,20 7.2173913,20.3043478 7.04347826,20.4782609 L3,17.8695652 Z" id="Rectangle-2-Copy-8" transform="translate(5.413043, 19.173913) scale(-1, 1) translate(-5.413043, -19.173913) "></path>
                <path d="M22.5652174,17.8695652 L25.0173913,17.8695652 L27,18.6521739 C27,18.7391304 26.9130435,19 26.7391304,19.4347826 C26.5652174,19.8695652 26.4347826,20.173913 26.3478261,20.3478261 L22.5652174,17.8695652 Z" id="Rectangle-2-Copy-9"></path>
                <path d="" id="Rectangle-2-Copy-10"></path>
                <path d="M2.8666568,17.8669162 L4.51883071,17.8669162 L4.69274376,17.8669162 C4.70349402,17.8229563 4.68444246,17.9008618 4.63558906,18.1006327 C4.58673567,18.3004036 4.56230897,18.400289 4.56230897,18.400289 L2.8666568,17.8669162 Z" id="Rectangle-2-Copy-11" transform="translate(3.781154, 18.188381) scale(-1, 1) translate(-3.781154, -18.188381) "></path>
            </g>
            <text id="Doton-Farm" font-family="AmaticSC-Bold, Amatic SC" font-size="33" font-weight="bold" letter-spacing="-0.634615481">
                <tspan x="31" y="27">Doton Farm</tspan>
            </text>
        </g>
    </g>
</svg>