<?xml version="1.0" encoding="UTF-8"?>
<svg width="32px" height="32px" viewBox="0 0 32 32" version="1.1" xmlns="http://www.w3.org/2000/svg" xmlns:xlink="http://www.w3.org/1999/xlink">
    <!-- Generator: Sketch 48 (47235) - http://www.bohemiancoding.com/sketch -->
    <title>doton_farm_favicon</title>
    <desc>Created with Sketch.</desc>
    <defs></defs>
    <g id="Page-1" stroke="none" stroke-width="1" fill="none" fill-rule="evenodd">
        <g id="doton_farm_favicon" fill="#FFFFFF">
            <path d="M16,32 C7.163444,32 0,24.836556 0,16 C0,7.163444 7.163444,0 16,0 C24.836556,0 32,7.163444 32,16 C32,24.836556 24.836556,32 16,32 Z M16.0695652,29.9130435 C23.7151071,29.9130435 29.9130435,23.7151071 29.9130435,16.0695652 C29.9130435,8.42402329 23.7151071,2.22608696 16.0695652,2.22608696 C8.42402329,2.22608696 2.22608696,8.42402329 2.22608696,16.0695652 C2.22608696,23.7151071 8.42402329,29.9130435 16.0695652,29.9130435 Z" id="Combined-Shape" fill-opacity="0.453521286"></path>
            <path d="M20.5913043,18.6434783 L20.5913043,12.9391304 L11.826087,12.9391304 L11.826087,18.6434783 L8.20869565,18.6434783 L8.20869565,10.7130435 L10.7130435,6.12173913 L16,3.47826087 L21.5652174,6.4 L23.9304348,10.8521739 L23.9304348,18.6434783 L20.5913043,18.6434783 Z M14.6086957,6.12173913 L14.6086957,9.04347826 L17.5304348,9.04347826 L17.5304348,6.12173913 L14.6086957,6.12173913 Z" id="Combined-Shape"></path>
            <rect id="Rectangle-3" x="14.8869565" y="6.4" width="2.36521739" height="2.36521739"></rect>
            <polygon id="Triangle" points="16.1391304 16.4173913 19.3391304 18.5043478 12.9391304 18.5043478"></polygon>
            <polygon id="Triangle-Copy-2" points="16.6956522 16.0695652 19.8956522 13.9130435 19.8956522 18.226087"></polygon>
            <polygon id="Triangle-Copy-3" transform="translate(14.121739, 16.069565) scale(-1, 1) translate(-14.121739, -16.069565) " points="12.5217391 16.0695652 15.7217391 13.9130435 15.7217391 18.226087"></polygon>
            <polygon id="Triangle-Copy" transform="translate(16.139130, 14.678261) scale(1, -1) translate(-16.139130, -14.678261) " points="16.1391304 13.6347826 19.3391304 15.7217391 12.9391304 15.7217391"></polygon>
            <path d="M16.1391304,19.0608696 L18.0869565,19.0608696 L22.5391304,27.5478261 C21.3333333,28.2898551 20.2202899,28.7536232 19.2,28.9391304 C18.1797101,29.1246377 17.1594203,29.2173913 16.1391304,29.2173913 L16.1391304,19.0608696 Z" id="Rectangle-2-Copy-2"></path>
            <path d="M9.46086957,19.0608696 L11.4086957,19.0608696 L15.8608696,27.5478261 C14.3768116,28.2898551 13.2637681,28.7536232 12.5217391,28.9391304 C11.7797101,29.1246377 10.7594203,29.2173913 9.46086957,29.2173913 L9.46086957,19.0608696 Z" id="Rectangle-2-Copy-3" transform="translate(12.660870, 24.139130) scale(-1, 1) translate(-12.660870, -24.139130) "></path>
            <path d="M6.12173913,19.0608696 L8.06956522,19.0608696 L13.6347826,24.9043478 C13.542029,25.1826087 13.1246377,25.6 12.3826087,26.1565217 C11.6405797,26.7130435 11.0376812,27.1304348 10.573913,27.4086957 L6.12173913,19.0608696 Z" id="Rectangle-2-Copy-4" transform="translate(9.878261, 23.234783) scale(-1, 1) translate(-9.878261, -23.234783) "></path>
            <path d="M18.5043478,19.0608696 L20.4521739,19.0608696 L26.4347826,24.4869565 C26.0637681,25.0434783 25.5072464,25.6 24.7652174,26.1565217 C24.0231884,26.7130435 23.4202899,27.1304348 22.9565217,27.4086957 L18.5043478,19.0608696 Z" id="Rectangle-2-Copy-5"></path>
            <path d="M21.0086957,19.0608696 L23.2347826,19.0608696 L27.9652174,21.9826087 C28.057971,22.0753623 27.9188406,22.4 27.5478261,22.9565217 C27.1768116,23.5130435 26.8985507,23.884058 26.7130435,24.0695652 L21.0086957,19.0608696 Z" id="Rectangle-2-Copy-6"></path>
            <path d="M4.17391304,19.0608696 L6.65043478,19.0608696 L11.3808696,21.9826087 C11.4736232,22.0753623 11.3344928,22.4 10.9634783,22.9565217 C10.5924638,23.5130435 10.1843478,24.0695652 9.73913043,24.626087 L4.17391304,19.0608696 Z" id="Rectangle-2-Copy-7" transform="translate(7.791304, 21.843478) scale(-1, 1) translate(-7.791304, -21.843478) "></path>
            <path d="M3.2,19.0608696 L5.81565217,19.0608696 L8.34782609,20.0347826 C8.34782609,20.1275362 8.25507246,20.4057971 8.06956522,20.8695652 C7.88405797,21.3333333 7.69855072,21.657971 7.51304348,21.8434783 L3.2,19.0608696 Z" id="Rectangle-2-Copy-8" transform="translate(5.773913, 20.452174) scale(-1, 1) translate(-5.773913, -20.452174) "></path>
            <path d="M24.0695652,19.0608696 L26.6852174,19.0608696 L28.8,19.8956522 C28.8,19.9884058 28.7072464,20.2666667 28.5217391,20.7304348 C28.3362319,21.1942029 28.1971014,21.5188406 28.1043478,21.7043478 L24.0695652,19.0608696 Z" id="Rectangle-2-Copy-9"></path>
            <path d="" id="Rectangle-2-Copy-10"></path>
            <path d="M3.05776725,19.058044 L4.82008609,19.058044 L5.00559334,19.058044 C5.01706029,19.0111534 4.99673862,19.0942526 4.94462834,19.3073415 C4.89251805,19.5204305 4.8664629,19.6269749 4.8664629,19.6269749 L3.05776725,19.058044 Z" id="Rectangle-2-Copy-11" transform="translate(4.033231, 19.400940) scale(-1, 1) translate(-4.033231, -19.400940) "></path>
        </g>
    </g>
</svg>